<svg width="109" height="108" viewBox="0 0 109 108" xmlns="http://www.w3.org/2000/svg"><title>Group-13-Copy</title><g fill="none" fill-rule="evenodd"><path d="M77 75h1v1h-1v-1zm-8 4h1v1h-1v-1zm4 0h1v1h-1v-1zm4 0h1v1h-1v-1zm-12 4h1v1h-1v-1zm4 0h1v1h-1v-1zm4 0h1v1h-1v-1zm4 0h1v1h-1v-1zm-28 8h1v1h-1v-1zm4 0h1v1h-1v-1zm4 0h1v1h-1v-1zm4 0h1v1h-1v-1zm4 0h1v1h-1v-1zm4 0h1v1h-1v-1zm4 0h1v1h-1v-1zm0 4h1v1h-1v-1zm4-4h1v1h-1v-1zm-28 4h1v1h-1v-1zm4 0h1v1h-1v-1zm4 0h1v1h-1v-1zm4 0h1v1h-1v-1zm4 0h1v1h-1v-1zm0 4h1v1h-1v-1zm4-4h1v1h-1v-1zm11-62h1v1h-1v-1zm4 0h1v1h-1v-1zm4 0h1v1h-1v-1zm4 0h1v1h-1v-1zm-4-4h1v1h-1v-1zm4 0h1v1h-1v-1zm4 4h1v1h-1v-1zm-16 4h1v1h-1v-1zm4 0h1v1h-1v-1zm4 0h1v1h-1v-1zm4 0h1v1h-1v-1zm8 0h1v1h-1v-1zm-4 0h1v1h-1v-1zm8 0h1v1h-1v-1zm-24 4h1v1h-1v-1zm4 0h1v1h-1v-1zm4 0h1v1h-1v-1zm4 0h1v1h-1v-1zm8 0h1v1h-1v-1zm-4 0h1v1h-1v-1zm8 0h1v1h-1v-1zm4 0h1v1h-1v-1zm-28 4h1v1h-1v-1zm4 0h1v1h-1v-1zm4 0h1v1h-1v-1zm4 0h1v1h-1v-1zm8 0h1v1h-1v-1zm-4 0h1v1h-1v-1zm8 0h1v1h-1v-1zm4 0h1v1h-1v-1zm-28 4h1v1h-1v-1zm4 0h1v1h-1v-1zm4 0h1v1h-1v-1zm4 0h1v1h-1v-1zm8 0h1v1h-1v-1zm-4 0h1v1h-1v-1zm8 0h1v1h-1v-1zm4 0h1v1h-1v-1zm-28 4h1v1h-1v-1zm4 0h1v1h-1v-1zm4 0h1v1h-1v-1zm4 0h1v1h-1v-1zm4 0h1v1h-1v-1zm4 0h1v1h-1v-1zm4 0h1v1h-1v-1zm4 0h1v1h-1v-1zm-28 4h1v1h-1v-1zm4 0h1v1h-1v-1zm4 0h1v1h-1v-1zm4 0h1v1h-1v-1zm4 0h1v1h-1v-1zm4 0h1v1h-1v-1zm4 0h1v1h-1v-1zm4 0h1v1h-1v-1zm-28 4h1v1h-1v-1zm4 0h1v1h-1v-1zm4 0h1v1h-1v-1zm4 0h1v1h-1v-1zm4 0h1v1h-1v-1zm4 0h1v1h-1v-1zm4 0h1v1h-1v-1zm4 0h1v1h-1v-1zM57 87h1v1h-1v-1zm4 0h1v1h-1v-1zm4 0h1v1h-1v-1zm4 0h1v1h-1v-1zm4 0h1v1h-1v-1zm4 0h1v1h-1v-1zm3-22h1v1h-1v-1zm4 0h1v1h-1v-1zm4 0h1v1h-1v-1zm4 0h1v1h-1v-1zm4 0h1v1h-1v-1zm4 0h1v1h-1v-1zM20 4h1v1h-1V4zm4 0h1v1h-1V4zm4 0h1v1h-1V4zm4 0h1v1h-1V4zm-4-4h1v1h-1V0zm4 0h1v1h-1V0zm4 4h1v1h-1V4zm52 65h1v1h-1v-1zm4 0h1v1h-1v-1zM57 99h1v1h-1v-1zm4 0h1v1h-1v-1zm0 4h1v1h-1v-1zm-4 0h1v1h-1v-1zm-4 0h1v1h-1v-1zm0-4h1v1h-1v-1zm-4 0h1v1h-1v-1zm0 4h1v1h-1v-1zm0 4h1v1h-1v-1zm-4-4h1v1h-1v-1zm0-4h1v1h-1v-1zm-4 0h1v1h-1v-1zm0-4h1v1h-1v-1zm4 0h1v1h-1v-1zm0-4h1v1h-1v-1zm-4 0h1v1h-1v-1zm-4 0h1v1h-1v-1zm0 4h1v1h-1v-1zm-4 0h1v1h-1v-1zm0-4h1v1h-1v-1zm0-4h1v1h-1v-1zm4 0h1v1h-1v-1zm-8-4h1v1h-1v-1zm0 4h1v1h-1v-1zm0 4h1v1h-1v-1zM20 8h1v1h-1V8zm-4 0h1v1h-1V8zm-4 0h1v1h-1V8zm0 28h1v1h-1v-1zM24 8h1v1h-1V8zm4 0h1v1h-1V8zm4 0h1v1h-1V8zm8 0h1v1h-1V8zm0-4h1v1h-1V4zm-4 4h1v1h-1V8zm8 0h1v1h-1V8zm-24 4h1v1h-1v-1zm-4 0h1v1h-1v-1zm-4 0h1v1h-1v-1zm-4 0h1v1H8v-1zm4 28h1v1h-1v-1zm-4 0h1v1H8v-1zm0-4h1v1H8v-1zm16-24h1v1h-1v-1zm4 0h1v1h-1v-1zm4 0h1v1h-1v-1zm8 0h1v1h-1v-1zm-4 0h1v1h-1v-1zm8 0h1v1h-1v-1zm4 0h1v1h-1v-1zm4 0h1v1h-1v-1zm0 4h1v1h-1v-1zm4 0h1v1h-1v-1zm0 4h1v1h-1v-1zm4 0h1v1h-1v-1zm0 4h1v1h-1v-1zm-40-8h1v1h-1v-1zm-4 0h1v1h-1v-1zm-4 0h1v1h-1v-1zm-4 0h1v1H8v-1zm-4 0h1v1H4v-1zm-4 0h1v1H0v-1zm12 28h1v1h-1v-1zm-4 0h1v1H8v-1zm-4 0h1v1H4v-1zm-4 0h1v1H0v-1zm4-4h1v1H4v-1zm-4 0h1v1H0v-1zm4-4h1v1H4v-1zm-4 0h1v1H0v-1zm24-20h1v1h-1v-1zm4 0h1v1h-1v-1zm4 0h1v1h-1v-1zm8 0h1v1h-1v-1zm-4 0h1v1h-1v-1zm8 0h1v1h-1v-1zm4 0h1v1h-1v-1zm-28 4h1v1h-1v-1zm-4 0h1v1h-1v-1zm-4 0h1v1h-1v-1zm-4 0h1v1H8v-1zm-4 0h1v1H4v-1zm-4 0h1v1H0v-1zm12 28h1v1h-1v-1zm-4 0h1v1H8v-1zm-4 0h1v1H4v-1zm-4 0h1v1H0v-1zm24-28h1v1h-1v-1zm4 0h1v1h-1v-1zm4 0h1v1h-1v-1zm8 0h1v1h-1v-1zm-4 0h1v1h-1v-1zm-16 4h1v1h-1v-1zm-4 0h1v1h-1v-1zm-4 0h1v1h-1v-1zm-4 0h1v1H8v-1zm-4 0h1v1H4v-1zm-4 0h1v1H0v-1zm12 28h1v1h-1v-1zm-4 0h1v1H8v-1zm-4 0h1v1H4v-1zm-4 0h1v1H0v-1zm24-28h1v1h-1v-1zm4 0h1v1h-1v-1zm4 0h1v1h-1v-1zm-12 4h1v1h-1v-1zm-4 0h1v1h-1v-1zm-4 0h1v1h-1v-1zm-4 0h1v1H8v-1zm-4 0h1v1H4v-1zm-4 0h1v1H0v-1zm12 28h1v1h-1v-1zm-8 0h1v1H4v-1zm0 4h1v1H4v-1zm-4-4h1v1H0v-1zm24-28h1v1h-1v-1zm4 0h1v1h-1v-1zm-8 4h1v1h-1v-1zm-4 0h1v1h-1v-1zm-4 0h1v1h-1v-1zm-4 0h1v1H8v-1zm-4 0h1v1H4v-1zm-4 0h1v1H0v-1zm12 28h1v1h-1v-1zm0 4h1v1h-1v-1zm-4-8h1v1H8v-1zm0 4h1v1H8v-1z" fill-opacity=".3" fill="#0D3244"/><path d="M47.5 17L80 35.75v37.5L47.5 92 15 73.25v-37.5" fill="#000"/><path d="M47.5 17L80 35.75v37.5L47.5 92 15 73.25v-37.5" fill="#0D3244"/><g><path stroke="#FFF" stroke-width="2" d="M34 36h25v32H34z"/><path stroke="#FFF" stroke-width="2" d="M60 38h3v34H37v-3"/><path fill="#FFF" d="M42 61h14v2H42M37 61h3v2h-3M42 56h14v2H42zM37 56h3v2h-3zM42 51h14v2H42zM37 51h3v2h-3zM42 46h14v2H42M37 46h3v2h-3M42 41h14v2H42M37 41h3v2h-3"/></g></g></svg>
