<svg width="109" height="108" viewBox="0 0 109 108" xmlns="http://www.w3.org/2000/svg"><title>Group-13-Copy Copy</title><g fill="none" fill-rule="evenodd"><path d="M77 75h1v1h-1v-1zm-8 4h1v1h-1v-1zm4 0h1v1h-1v-1zm4 0h1v1h-1v-1zm-12 4h1v1h-1v-1zm4 0h1v1h-1v-1zm4 0h1v1h-1v-1zm4 0h1v1h-1v-1zm-28 8h1v1h-1v-1zm4 0h1v1h-1v-1zm4 0h1v1h-1v-1zm4 0h1v1h-1v-1zm4 0h1v1h-1v-1zm4 0h1v1h-1v-1zm4 0h1v1h-1v-1zm0 4h1v1h-1v-1zm4-4h1v1h-1v-1zm-28 4h1v1h-1v-1zm4 0h1v1h-1v-1zm4 0h1v1h-1v-1zm4 0h1v1h-1v-1zm4 0h1v1h-1v-1zm0 4h1v1h-1v-1zm4-4h1v1h-1v-1zm11-62h1v1h-1v-1zm4 0h1v1h-1v-1zm4 0h1v1h-1v-1zm4 0h1v1h-1v-1zm-4-4h1v1h-1v-1zm4 0h1v1h-1v-1zm4 4h1v1h-1v-1zm-16 4h1v1h-1v-1zm4 0h1v1h-1v-1zm4 0h1v1h-1v-1zm4 0h1v1h-1v-1zm8 0h1v1h-1v-1zm-4 0h1v1h-1v-1zm8 0h1v1h-1v-1zm-24 4h1v1h-1v-1zm4 0h1v1h-1v-1zm4 0h1v1h-1v-1zm4 0h1v1h-1v-1zm8 0h1v1h-1v-1zm-4 0h1v1h-1v-1zm8 0h1v1h-1v-1zm4 0h1v1h-1v-1zm-28 4h1v1h-1v-1zm4 0h1v1h-1v-1zm4 0h1v1h-1v-1zm4 0h1v1h-1v-1zm8 0h1v1h-1v-1zm-4 0h1v1h-1v-1zm8 0h1v1h-1v-1zm4 0h1v1h-1v-1zm-28 4h1v1h-1v-1zm4 0h1v1h-1v-1zm4 0h1v1h-1v-1zm4 0h1v1h-1v-1zm8 0h1v1h-1v-1zm-4 0h1v1h-1v-1zm8 0h1v1h-1v-1zm4 0h1v1h-1v-1zm-28 4h1v1h-1v-1zm4 0h1v1h-1v-1zm4 0h1v1h-1v-1zm4 0h1v1h-1v-1zm4 0h1v1h-1v-1zm4 0h1v1h-1v-1zm4 0h1v1h-1v-1zm4 0h1v1h-1v-1zm-28 4h1v1h-1v-1zm4 0h1v1h-1v-1zm4 0h1v1h-1v-1zm4 0h1v1h-1v-1zm4 0h1v1h-1v-1zm4 0h1v1h-1v-1zm4 0h1v1h-1v-1zm4 0h1v1h-1v-1zm-28 4h1v1h-1v-1zm4 0h1v1h-1v-1zm4 0h1v1h-1v-1zm4 0h1v1h-1v-1zm4 0h1v1h-1v-1zm4 0h1v1h-1v-1zm4 0h1v1h-1v-1zm4 0h1v1h-1v-1zM57 87h1v1h-1v-1zm4 0h1v1h-1v-1zm4 0h1v1h-1v-1zm4 0h1v1h-1v-1zm4 0h1v1h-1v-1zm4 0h1v1h-1v-1zm3-22h1v1h-1v-1zm4 0h1v1h-1v-1zm4 0h1v1h-1v-1zm4 0h1v1h-1v-1zm4 0h1v1h-1v-1zm4 0h1v1h-1v-1zM20 4h1v1h-1V4zm4 0h1v1h-1V4zm4 0h1v1h-1V4zm4 0h1v1h-1V4zm-4-4h1v1h-1V0zm4 0h1v1h-1V0zm4 4h1v1h-1V4zm52 65h1v1h-1v-1zm4 0h1v1h-1v-1zM57 99h1v1h-1v-1zm4 0h1v1h-1v-1zm0 4h1v1h-1v-1zm-4 0h1v1h-1v-1zm-4 0h1v1h-1v-1zm0-4h1v1h-1v-1zm-4 0h1v1h-1v-1zm0 4h1v1h-1v-1zm0 4h1v1h-1v-1zm-4-4h1v1h-1v-1zm0-4h1v1h-1v-1zm-4 0h1v1h-1v-1zm0-4h1v1h-1v-1zm4 0h1v1h-1v-1zm0-4h1v1h-1v-1zm-4 0h1v1h-1v-1zm-4 0h1v1h-1v-1zm0 4h1v1h-1v-1zm-4 0h1v1h-1v-1zm0-4h1v1h-1v-1zm0-4h1v1h-1v-1zm4 0h1v1h-1v-1zm-8-4h1v1h-1v-1zm0 4h1v1h-1v-1zm0 4h1v1h-1v-1zM20 8h1v1h-1V8zm-4 0h1v1h-1V8zm-4 0h1v1h-1V8zm0 28h1v1h-1v-1zM24 8h1v1h-1V8zm4 0h1v1h-1V8zm4 0h1v1h-1V8zm8 0h1v1h-1V8zm0-4h1v1h-1V4zm-4 4h1v1h-1V8zm8 0h1v1h-1V8zm-24 4h1v1h-1v-1zm-4 0h1v1h-1v-1zm-4 0h1v1h-1v-1zm-4 0h1v1H8v-1zm4 28h1v1h-1v-1zm-4 0h1v1H8v-1zm0-4h1v1H8v-1zm16-24h1v1h-1v-1zm4 0h1v1h-1v-1zm4 0h1v1h-1v-1zm8 0h1v1h-1v-1zm-4 0h1v1h-1v-1zm8 0h1v1h-1v-1zm4 0h1v1h-1v-1zm4 0h1v1h-1v-1zm0 4h1v1h-1v-1zm4 0h1v1h-1v-1zm0 4h1v1h-1v-1zm4 0h1v1h-1v-1zm0 4h1v1h-1v-1zm-40-8h1v1h-1v-1zm-4 0h1v1h-1v-1zm-4 0h1v1h-1v-1zm-4 0h1v1H8v-1zm-4 0h1v1H4v-1zm-4 0h1v1H0v-1zm12 28h1v1h-1v-1zm-4 0h1v1H8v-1zm-4 0h1v1H4v-1zm-4 0h1v1H0v-1zm4-4h1v1H4v-1zm-4 0h1v1H0v-1zm4-4h1v1H4v-1zm-4 0h1v1H0v-1zm24-20h1v1h-1v-1zm4 0h1v1h-1v-1zm4 0h1v1h-1v-1zm8 0h1v1h-1v-1zm-4 0h1v1h-1v-1zm8 0h1v1h-1v-1zm4 0h1v1h-1v-1zm-28 4h1v1h-1v-1zm-4 0h1v1h-1v-1zm-4 0h1v1h-1v-1zm-4 0h1v1H8v-1zm-4 0h1v1H4v-1zm-4 0h1v1H0v-1zm12 28h1v1h-1v-1zm-4 0h1v1H8v-1zm-4 0h1v1H4v-1zm-4 0h1v1H0v-1zm24-28h1v1h-1v-1zm4 0h1v1h-1v-1zm4 0h1v1h-1v-1zm8 0h1v1h-1v-1zm-4 0h1v1h-1v-1zm-16 4h1v1h-1v-1zm-4 0h1v1h-1v-1zm-4 0h1v1h-1v-1zm-4 0h1v1H8v-1zm-4 0h1v1H4v-1zm-4 0h1v1H0v-1zm12 28h1v1h-1v-1zm-4 0h1v1H8v-1zm-4 0h1v1H4v-1zm-4 0h1v1H0v-1zm24-28h1v1h-1v-1zm4 0h1v1h-1v-1zm4 0h1v1h-1v-1zm-12 4h1v1h-1v-1zm-4 0h1v1h-1v-1zm-4 0h1v1h-1v-1zm-4 0h1v1H8v-1zm-4 0h1v1H4v-1zm-4 0h1v1H0v-1zm12 28h1v1h-1v-1zm-8 0h1v1H4v-1zm0 4h1v1H4v-1zm-4-4h1v1H0v-1zm24-28h1v1h-1v-1zm4 0h1v1h-1v-1zm-8 4h1v1h-1v-1zm-4 0h1v1h-1v-1zm-4 0h1v1h-1v-1zm-4 0h1v1H8v-1zm-4 0h1v1H4v-1zm-4 0h1v1H0v-1zm12 28h1v1h-1v-1zm0 4h1v1h-1v-1zm-4-8h1v1H8v-1zm0 4h1v1H8v-1z" fill-opacity=".3" fill="#0D3244"/><path d="M47.5 17L80 35.75v37.5L47.5 92 15 73.25v-37.5" fill="#000"/><path d="M47.5 17L80 35.75v37.5L47.5 92 15 73.25v-37.5" fill="#0D3244"/><g stroke-width="2" stroke="#FFF"><path d="M39.5392 45.539c-4.416 4.4162-4.416 11.576 0 15.992s11.576 4.416 15.992 0 4.416-11.5758 0-15.992c-4.416-4.416-11.576-4.416-15.992 0zm22.4302-6.438c7.972 7.9717 7.972 20.8965 0 28.8683-7.9718 7.972-20.8966 7.972-28.8684 0-7.972-7.9718-7.972-20.8966 0-28.8684 7.9718-7.9722 20.8966-7.9722 28.8684 0z"/><path d="M55.5312 45.539c-4.416-4.416-11.576-4.416-15.992 0l-6.4382-6.438c7.9718-7.9722 20.8966-7.9722 28.8684 0l-6.4382 6.438zM39.5392 61.531c4.416 4.416 11.576 4.416 15.992 0l6.4382 6.4383c-7.9718 7.972-20.8966 7.972-28.8684 0l6.4382-6.4382z"/></g></g></svg>
