<svg width="109" height="108" viewBox="0 0 109 108" xmlns="http://www.w3.org/2000/svg"><title>Group-13-Copy Copy 2</title><g fill="none" fill-rule="evenodd"><path d="M77 75h1v1h-1v-1zm-8 4h1v1h-1v-1zm4 0h1v1h-1v-1zm4 0h1v1h-1v-1zm-12 4h1v1h-1v-1zm4 0h1v1h-1v-1zm4 0h1v1h-1v-1zm4 0h1v1h-1v-1zm-28 8h1v1h-1v-1zm4 0h1v1h-1v-1zm4 0h1v1h-1v-1zm4 0h1v1h-1v-1zm4 0h1v1h-1v-1zm4 0h1v1h-1v-1zm4 0h1v1h-1v-1zm0 4h1v1h-1v-1zm4-4h1v1h-1v-1zm-28 4h1v1h-1v-1zm4 0h1v1h-1v-1zm4 0h1v1h-1v-1zm4 0h1v1h-1v-1zm4 0h1v1h-1v-1zm0 4h1v1h-1v-1zm4-4h1v1h-1v-1zm11-62h1v1h-1v-1zm4 0h1v1h-1v-1zm4 0h1v1h-1v-1zm4 0h1v1h-1v-1zm-4-4h1v1h-1v-1zm4 0h1v1h-1v-1zm4 4h1v1h-1v-1zm-16 4h1v1h-1v-1zm4 0h1v1h-1v-1zm4 0h1v1h-1v-1zm4 0h1v1h-1v-1zm8 0h1v1h-1v-1zm-4 0h1v1h-1v-1zm8 0h1v1h-1v-1zm-24 4h1v1h-1v-1zm4 0h1v1h-1v-1zm4 0h1v1h-1v-1zm4 0h1v1h-1v-1zm8 0h1v1h-1v-1zm-4 0h1v1h-1v-1zm8 0h1v1h-1v-1zm4 0h1v1h-1v-1zm-28 4h1v1h-1v-1zm4 0h1v1h-1v-1zm4 0h1v1h-1v-1zm4 0h1v1h-1v-1zm8 0h1v1h-1v-1zm-4 0h1v1h-1v-1zm8 0h1v1h-1v-1zm4 0h1v1h-1v-1zm-28 4h1v1h-1v-1zm4 0h1v1h-1v-1zm4 0h1v1h-1v-1zm4 0h1v1h-1v-1zm8 0h1v1h-1v-1zm-4 0h1v1h-1v-1zm8 0h1v1h-1v-1zm4 0h1v1h-1v-1zm-28 4h1v1h-1v-1zm4 0h1v1h-1v-1zm4 0h1v1h-1v-1zm4 0h1v1h-1v-1zm4 0h1v1h-1v-1zm4 0h1v1h-1v-1zm4 0h1v1h-1v-1zm4 0h1v1h-1v-1zm-28 4h1v1h-1v-1zm4 0h1v1h-1v-1zm4 0h1v1h-1v-1zm4 0h1v1h-1v-1zm4 0h1v1h-1v-1zm4 0h1v1h-1v-1zm4 0h1v1h-1v-1zm4 0h1v1h-1v-1zm-28 4h1v1h-1v-1zm4 0h1v1h-1v-1zm4 0h1v1h-1v-1zm4 0h1v1h-1v-1zm4 0h1v1h-1v-1zm4 0h1v1h-1v-1zm4 0h1v1h-1v-1zm4 0h1v1h-1v-1zM57 87h1v1h-1v-1zm4 0h1v1h-1v-1zm4 0h1v1h-1v-1zm4 0h1v1h-1v-1zm4 0h1v1h-1v-1zm4 0h1v1h-1v-1zm3-22h1v1h-1v-1zm4 0h1v1h-1v-1zm4 0h1v1h-1v-1zm4 0h1v1h-1v-1zm4 0h1v1h-1v-1zm4 0h1v1h-1v-1zM20 4h1v1h-1V4zm4 0h1v1h-1V4zm4 0h1v1h-1V4zm4 0h1v1h-1V4zm-4-4h1v1h-1V0zm4 0h1v1h-1V0zm4 4h1v1h-1V4zm52 65h1v1h-1v-1zm4 0h1v1h-1v-1zM57 99h1v1h-1v-1zm4 0h1v1h-1v-1zm0 4h1v1h-1v-1zm-4 0h1v1h-1v-1zm-4 0h1v1h-1v-1zm0-4h1v1h-1v-1zm-4 0h1v1h-1v-1zm0 4h1v1h-1v-1zm0 4h1v1h-1v-1zm-4-4h1v1h-1v-1zm0-4h1v1h-1v-1zm-4 0h1v1h-1v-1zm0-4h1v1h-1v-1zm4 0h1v1h-1v-1zm0-4h1v1h-1v-1zm-4 0h1v1h-1v-1zm-4 0h1v1h-1v-1zm0 4h1v1h-1v-1zm-4 0h1v1h-1v-1zm0-4h1v1h-1v-1zm0-4h1v1h-1v-1zm4 0h1v1h-1v-1zm-8-4h1v1h-1v-1zm0 4h1v1h-1v-1zm0 4h1v1h-1v-1zM20 8h1v1h-1V8zm-4 0h1v1h-1V8zm-4 0h1v1h-1V8zm0 28h1v1h-1v-1zM24 8h1v1h-1V8zm4 0h1v1h-1V8zm4 0h1v1h-1V8zm8 0h1v1h-1V8zm0-4h1v1h-1V4zm-4 4h1v1h-1V8zm8 0h1v1h-1V8zm-24 4h1v1h-1v-1zm-4 0h1v1h-1v-1zm-4 0h1v1h-1v-1zm-4 0h1v1H8v-1zm4 28h1v1h-1v-1zm-4 0h1v1H8v-1zm0-4h1v1H8v-1zm16-24h1v1h-1v-1zm4 0h1v1h-1v-1zm4 0h1v1h-1v-1zm8 0h1v1h-1v-1zm-4 0h1v1h-1v-1zm8 0h1v1h-1v-1zm4 0h1v1h-1v-1zm4 0h1v1h-1v-1zm0 4h1v1h-1v-1zm4 0h1v1h-1v-1zm0 4h1v1h-1v-1zm4 0h1v1h-1v-1zm0 4h1v1h-1v-1zm-40-8h1v1h-1v-1zm-4 0h1v1h-1v-1zm-4 0h1v1h-1v-1zm-4 0h1v1H8v-1zm-4 0h1v1H4v-1zm-4 0h1v1H0v-1zm12 28h1v1h-1v-1zm-4 0h1v1H8v-1zm-4 0h1v1H4v-1zm-4 0h1v1H0v-1zm4-4h1v1H4v-1zm-4 0h1v1H0v-1zm4-4h1v1H4v-1zm-4 0h1v1H0v-1zm24-20h1v1h-1v-1zm4 0h1v1h-1v-1zm4 0h1v1h-1v-1zm8 0h1v1h-1v-1zm-4 0h1v1h-1v-1zm8 0h1v1h-1v-1zm4 0h1v1h-1v-1zm-28 4h1v1h-1v-1zm-4 0h1v1h-1v-1zm-4 0h1v1h-1v-1zm-4 0h1v1H8v-1zm-4 0h1v1H4v-1zm-4 0h1v1H0v-1zm12 28h1v1h-1v-1zm-4 0h1v1H8v-1zm-4 0h1v1H4v-1zm-4 0h1v1H0v-1zm24-28h1v1h-1v-1zm4 0h1v1h-1v-1zm4 0h1v1h-1v-1zm8 0h1v1h-1v-1zm-4 0h1v1h-1v-1zm-16 4h1v1h-1v-1zm-4 0h1v1h-1v-1zm-4 0h1v1h-1v-1zm-4 0h1v1H8v-1zm-4 0h1v1H4v-1zm-4 0h1v1H0v-1zm12 28h1v1h-1v-1zm-4 0h1v1H8v-1zm-4 0h1v1H4v-1zm-4 0h1v1H0v-1zm24-28h1v1h-1v-1zm4 0h1v1h-1v-1zm4 0h1v1h-1v-1zm-12 4h1v1h-1v-1zm-4 0h1v1h-1v-1zm-4 0h1v1h-1v-1zm-4 0h1v1H8v-1zm-4 0h1v1H4v-1zm-4 0h1v1H0v-1zm12 28h1v1h-1v-1zm-8 0h1v1H4v-1zm0 4h1v1H4v-1zm-4-4h1v1H0v-1zm24-28h1v1h-1v-1zm4 0h1v1h-1v-1zm-8 4h1v1h-1v-1zm-4 0h1v1h-1v-1zm-4 0h1v1h-1v-1zm-4 0h1v1H8v-1zm-4 0h1v1H4v-1zm-4 0h1v1H0v-1zm12 28h1v1h-1v-1zm0 4h1v1h-1v-1zm-4-8h1v1H8v-1zm0 4h1v1H8v-1z" fill-opacity=".3" fill="#0D3244"/><path d="M47.5 17L80 35.75v37.5L47.5 92 15 73.25v-37.5" fill="#000"/><path d="M47.5 17L80 35.75v37.5L47.5 92 15 73.25v-37.5" fill="#0D3244"/><path d="M33.8425 48.8935c-2.1494 0-4.1 1.882-4.1 4.1988 0 2.317 1.7425 4.195 3.892 4.195l.0517.0064v-6.0664c0-8.41 5.9972-15.2273 13.3955-15.2273h.2713c7.3983 0 13.3958 6.8173 13.3958 15.2273v6.0664c0 7.7312-5.0688 14.1166-11.6344 15.097" stroke="#FFF" stroke-width="2"/><path d="M48 72c0 1.1044.8956 2 2 2s2-.8956 2-2-.8956-2-2-2-2 .8956-2 2" fill="#FFF"/><path d="M61 48.8935c2.1494 0 4.1 1.882 4.1 4.1988 0 2.317-1.7425 4.195-3.892 4.195" stroke="#FFF" stroke-width="2"/></g></svg>
